<?xml version="1.0" encoding="UTF-8" standalone="no"?>
<!-- Created with Inkscape (http://www.inkscape.org/) -->

<svg
   width="120"
   height="120"
   viewBox="0 0 31.750001 31.750001"
   version="1.1"
   id="svg39916"
   sodipodi:docname="avatar_user.svg"
   inkscape:version="1.1.1 (3bf5ae0d25, 2021-09-20)"
   xmlns:inkscape="http://www.inkscape.org/namespaces/inkscape"
   xmlns:sodipodi="http://sodipodi.sourceforge.net/DTD/sodipodi-0.dtd"
   xmlns="http://www.w3.org/2000/svg"
   xmlns:svg="http://www.w3.org/2000/svg">
  <sodipodi:namedview
     id="namedview39918"
     pagecolor="#505050"
     bordercolor="#ffffff"
     borderopacity="1"
     inkscape:pageshadow="0"
     inkscape:pageopacity="0"
     inkscape:pagecheckerboard="1"
     inkscape:document-units="mm"
     showgrid="false"
     units="px"
     inkscape:zoom="5.6568543"
     inkscape:cx="57.894367"
     inkscape:cy="62.313785"
     inkscape:window-width="1920"
     inkscape:window-height="1017"
     inkscape:window-x="-8"
     inkscape:window-y="-8"
     inkscape:window-maximized="1"
     inkscape:current-layer="layer1"
     showguides="false"
     inkscape:guide-bbox="true">
    <sodipodi:guide
       position="11.757738,9.8157961"
       orientation="1,0"
       id="guide50665" />
    <sodipodi:guide
       position="15.717887,10.599459"
       orientation="0,-1"
       id="guide51070" />
    <sodipodi:guide
       position="21.894271,8.069792"
       orientation="0,-1"
       id="guide52022" />
    <sodipodi:guide
       position="21.75929,17.446487"
       orientation="0,-1"
       id="guide58028" />
    <sodipodi:guide
       position="22.191928,13.592969"
       orientation="0,-1"
       id="guide58030" />
    <sodipodi:guide
       position="20.508858,16.683879"
       orientation="0,-1"
       id="guide58283" />
    <sodipodi:guide
       position="12.154297,5.5727867"
       orientation="0.80839746,0.58863702"
       id="guide60876" />
    <sodipodi:guide
       position="20.729717,8.0516773"
       orientation="0.77720577,-0.62924653"
       id="guide60987" />
    <sodipodi:guide
       position="12.600782,6.1680992"
       orientation="-0.81009116,-0.58630395"
       id="guide61078" />
    <sodipodi:guide
       position="16.784506,4.1837241"
       orientation="0.77862954,-0.6274839"
       id="guide61109" />
    <sodipodi:guide
       position="15.873305,1.9268969"
       orientation="0,-1"
       id="guide62282" />
  </sodipodi:namedview>
  <defs
     id="defs39913" />
  <g
     inkscape:label="Capa 1"
     inkscape:groupmode="layer"
     id="layer1">
    <g
       id="g60093"
       style="fill:#ffffff"
       transform="translate(-0.05676917,-1.7145859)">
      <path
         style="fill:#ffffff;stroke:#000000;stroke-width:0;stroke-linecap:butt;stroke-linejoin:miter;stroke-miterlimit:4;stroke-dasharray:none;stroke-opacity:1"
         d="m 4.6183142,29.80709 c 0,0 0.2454176,-0.535457 0.5131461,-0.803185 0.2677285,-0.267728 0.9115174,-0.7095 1.4501953,-0.98167 0.5386779,-0.27217 1.1862844,-0.38709 1.7625451,-0.6247 0.5644136,-0.232725 1.1319885,-0.439986 1.4501953,-0.914739 0.508864,-0.759206 0.1901262,-2.831998 0.584463,-2.82488 l 1.378879,0.02489 v -2.53226 c -0.200795,-0.312355 -0.642389,-0.588771 -0.858953,-0.95937 -0.361297,-0.618274 -0.535523,-1.67167 -0.690971,-2.034145 -0.194085,-0.416063 0.491837,-0.113497 0,0 0,0 -0.456949,0.290709 -0.5918966,-0.06306 -0.1349475,-0.35376 -0.4231021,-1.19495 -0.5843867,-1.807162 -0.1036591,-0.393474 -0.2699228,-0.789612 -0.2454176,-1.195773 0.015443,-0.25596 0.044686,-0.56835 0.2441404,-0.729508 0.1164362,-0.09408 0.3046992,-0.09845 0.4463022,-0.0499 0.3410705,0.116937 0.7750933,0.754494 0.7750933,0.754494 0,0 -0.3158504,-1.017182 -0.4201232,-1.538449 -0.055066,-0.275281 -0.08666,-0.555342 -0.1077418,-0.835284 -0.02443,-0.324406 -0.03441,-0.650668 -0.021518,-0.975737 0.015128,-0.381449 0.049524,-0.763431 0.1158458,-1.139375 0.062656,-0.355166 0.1388001,-0.7112066 0.2654872,-1.0488741 0.152414,-0.4062423 0.345345,-0.8018538 0.589455,-1.1605643 0.272563,-0.4005199 0.594225,-0.774658 0.963924,-1.0877543 0.398421,-0.337421 0.847197,-0.6264733 1.327316,-0.8316011 0.654135,-0.2794749 1.361111,-0.4515882 2.068803,-0.5234965 0.629096,-0.063922 1.275366,-0.039882 1.895057,0.085936 0.551936,0.1120621 1.101402,0.2975439 1.584061,0.587772 0.523964,0.3150658 0.988468,0.7418602 1.369893,1.2196885 0.42797,0.5361363 0.769148,1.153961 0.99389,1.8021052 0.211312,0.6094106 0.286903,1.2648086 0.315049,1.9092016 0.02171,0.49708 -0.0327,0.997409 -0.113692,1.488327 -0.08291,0.502528 -0.316077,1.259303 -0.379181,1.480167 -0.0631,0.220866 -0.189313,0.567938 -0.189313,0.567938 0,0 0.249873,-0.449504 0.449618,-0.599489 0.119107,-0.08943 0.271316,-0.183252 0.418065,-0.15776 0.147939,0.0257 0.282369,0.154544 0.343129,0.291856 0.162341,0.366877 0.0019,0.803873 -0.03945,1.202923 -0.03841,0.370421 -0.105419,0.738479 -0.193257,1.100379 -0.07081,0.291747 -0.157759,0.63893 -0.268192,0.859795 -0.110433,0.220865 -0.347073,0.378622 -0.425954,0.394401 -0.07888,0.01578 -0.189309,-0.126208 -0.252416,0.536385 -0.06311,0.662593 -0.202333,1.121612 -0.425954,1.530278 -0.223621,0.408666 -0.804578,0.899234 -0.804578,0.899234 l 0.07888,2.555719 c 0,0 0.962339,0.01848 1.340964,0.01848 -0.08258,0.308179 0.05116,1.05481 0.184363,1.561828 0.108389,0.412563 0.249776,0.83077 0.494007,1.180496 0.150838,0.215992 0.354754,0.399922 0.579421,0.537506 0.330286,0.202265 0.725384,0.27188 1.091022,0.399584 0.623183,0.217655 1.224249,0.282801 1.879167,0.62474 0.654918,0.341939 1.367861,0.902896 1.735367,1.230529 0.367506,0.327633 0.552161,0.615268 0.552161,0.615268 z"
         id="path40022"
         sodipodi:nodetypes="czzsssccacczaaaacaaaaaaaaaaaaaaascaaaaazzzzcccaaaazzcc" />
      <path
         style="fill:#ffffff;fill-opacity:1;stroke:#000000;stroke-width:0;stroke-linecap:butt;stroke-linejoin:miter;stroke-miterlimit:4;stroke-dasharray:none;stroke-opacity:1"
         d="m 9.8226561,12.848828 -0.1157552,0.09922 -0.016537,-0.23151 -0.181901,-0.06615 0.1653646,-0.28112 0.049609,-0.314193 -0.066146,-0.413411 -0.099219,-0.644922 V 10.384893 L 9.6738267,9.8391896 9.9714829,9.1611948 10.649478,8.7808563 l 0.03307,-1.1410156 0.380339,-0.79375 0.727919,-0.1157552 0.925726,-0.7772136 v 0 c 0,0 0.11575,-0.2976558 0.760673,-0.2976558 0.644922,0 0.297657,-0.033073 0.694532,0 0.396875,0.033073 0.575938,-0.3245683 0.575938,-0.3245683 0,0 1.788775,0.2418856 1.95414,0.2418856 0.165364,0 0.909505,-0.066146 0.909505,-0.066146 l 0.859896,0.2811198 c 0,0 0.165364,0.4795572 0.264583,0.6449218 0.09922,0.1653646 0.876432,0.8102865 0.876432,0.8102865 0,0 0.297657,-0.066146 0.56224,0.2976562 0.264583,0.3638021 0.56224,0.975651 0.56224,0.975651 0,0 0.06615,0.1819011 0.297656,0.5457032 0.23151,0.3638027 0.198437,0.3638027 0.23151,0.4960937 0.03307,0.132292 0.04961,0.6779954 0.04961,0.6779954 l 0.04961,0.413411 0.01654,0.512631 0.06615,0.628385 -0.0867,0.476548 -0.146163,0.169549 -0.180554,0.3957 c 0,0 0.165364,0.04961 -0.297656,0.148828 -0.463021,0.09922 -0.214974,0.115755 -0.611849,0.165365 -0.396875,0.04961 -0.628386,0.09922 -0.992188,0.132291 -0.363802,0.03307 0.214974,0.03307 -0.876432,0.03307 -1.091406,0 -1.504818,0.363279 -1.967839,0.363279 -0.46302,0 -1.802474,-0.479034 -1.802474,-0.479034 0,0 -0.330729,0.06615 -1.107942,-0.04961 -0.777214,-0.115756 -1.587185,-0.231511 -1.587185,-0.231511 z"
         id="path59681"
         sodipodi:nodetypes="cccccccccccccccccsscsccscscsscccccccssssscccc" />
    </g>
    <path
       style="fill:#999999;fill-opacity:1;stroke:#000000;stroke-width:0;stroke-linecap:butt;stroke-linejoin:miter;stroke-miterlimit:4;stroke-dasharray:none;stroke-opacity:1"
       d="m 10.298963,21.965622 h 0.868698 l 4.112547,5.682271 4.579242,-5.663667 0.813497,-4.84e-4 -4.958785,6.124775 -0.961869,2.2e-5 c 0.0096,-0.03572 -4.45333,-6.142917 -4.45333,-6.142917 z"
       id="path61550"
       sodipodi:nodetypes="cccccccc" />
  </g>
</svg>
